<svg version="1.1" xmlns="http://www.w3.org/2000/svg" x="0" y="0" viewBox="0 0 511 511" xml:space="preserve"><style>.st0{fill:#ffffff}</style><path class="st0" d="M378.4 400.8h-39.8v-3.5c0-2.7 1.6-5.5 4.7-8.5 13.1-12.5 40.7-22.8 40.7-47.6 0-17.8-15.1-28.5-32.1-28.5-15.7 0-30.5 9.9-30.5 26.3 0 6.7 2.8 10 8.3 10 5 0 9.6-2.8 9.6-7.1s1.2-7.5 3.6-9.7c5-4.5 14.8-4.4 19.2.7 9.2 10.6-1.7 22.5-12.8 30.8-3.8 3.3-28.5 16.6-28.5 33.6v13.9c0 3.5 4.8 5.9 8 5.9h49.8c1.5 0 2.8-.8 4-2.5 3.9-5.7.5-13.8-4.2-13.8z"/><path class="st0" d="M443.8 377.1v-15.7c0-8.2-18.6-8.2-18.6 0v15.7h-16.7l27.4-54.8c3.8-7.6-11.8-14.5-16.4-4.8l-33.8 66c-2.5 4.6-.1 9.9 5.3 9.9h34.3V411c0 8 18.6 8.2 18.6 0v-17.6h6.7c4.6 0 8-8.2 4.3-13.9-2.5-3.7-5.7-2-11.1-2.4zM236.6 203v-90.7c0-5.5-4.5-10-10-10s-10 4.5-10 10V203c-11.3 3.4-20.3 12.3-23.7 23.7h-48.3c-5.5 0-10 4.5-10 10s4.5 10 10 10H193c4.3 14.5 17.8 25.1 33.6 25.1 19.3 0 35.1-15.7 35.1-35.1 0-16-10.6-29.4-25.1-33.7zm-10 48.8c-8.3 0-15.1-6.8-15.1-15.1s6.8-15.1 15.1-15.1 15.1 6.8 15.1 15.1c.1 8.3-6.7 15.1-15.1 15.1zM327.7 278c0-6.4-5.9-11-11.9-9.8-5.5 1.1-8.9 6.4-7.8 11.7 1.1 5.5 6.4 8.9 11.7 7.8 4.8-.9 8-5 8-9.7z"/><path class="st0" d="M506.8 342.6c-8.3-31.6-28-58.3-55.6-75.5 1.4-10.1 2.1-20.3 2.1-30.4C453.3 111.4 351.9 10 226.6 10 101.4 10 0 111.3 0 236.6c0 147.9 140.3 257.9 285.5 218.9 31.1 37.8 81.8 55.1 130.5 42.3 67.9-17.8 108.6-87.4 90.8-155.2zM411 478.5c-44.6 11.7-90.1-6.6-115.1-42.3-.1-.2-.2-.3-.3-.5-24.2-35-25.6-81.4-2.4-118.2 4.7-7.4 6.7-8.3 6.9-12.6.5-9.8-12.1-14.3-18-6.5-19.8 26.4-28.9 59.5-24.4 93-98.3 19.6-189-55.9-189-154.8 0-87.1 70.8-157.9 157.9-157.9 38.7 0 75 13.7 103.7 38.8l-11.3-.9c-5.5-.5-10.3 3.6-10.8 9.1s3.6 10.3 9.1 10.8c36.1 3 34.2 2.8 35 2.8 5.1 0 9.5-3.9 9.9-9.1l3.1-34.1a9.9 9.9 0 00-9-10.8c-5.5-.5-10.3 3.6-10.8 9l-.8 9.2c-31.3-27.8-72.6-44.8-118-44.8-98.1 0-177.9 79.8-177.9 177.9 0 112.2 103 196.5 213.1 174.3 2.9 9.7 7 19.1 11.5 27C143.5 468 20 368.9 20 236.6c0-114 92.7-206.7 206.7-206.7 114 0 206.7 92.7 206.7 206.7 0 6.9-.3 13.8-1 20.6-9.1-3.8-18.6-6.5-28.3-8 .3-4.2.5-8.4.5-12.6 0-25.4-5.3-50-15.6-73-2.3-5-8.2-7.3-13.2-5s-7.3 8.2-5 13.2c9.2 20.4 13.9 42.2 13.9 64.8 0 3.7-.1 7.3-.4 11-18.4 0-33.1 4.3-32.6 4.2-5.3 1.4-8.5 6.8-7.1 12.2 3.1 12 14.2 6 25.9 4.5 52.3-6.7 103.3 26 117.2 79.1 14.8 57.2-19.5 115.9-76.7 130.9z"/></svg>