<svg version="1.1" id="Capa_1" xmlns="http://www.w3.org/2000/svg" x="0" y="0" viewBox="0 0 480 480" xml:space="preserve"><style>.st0{fill:#37b8cd}</style><path class="st0" d="M416 80H64c-4.4 0-8 3.6-8 8v208c0 4.4 3.6 8 8 8h32v40c0 4.4 3.6 8 8 8h24v40c0 4.4 3.6 8 8 8h208c4.4 0 8-3.6 8-8v-40h32c4.4 0 8-3.6 8-8v-40h24c4.4 0 8-3.6 8-8V88c0-4.4-3.6-8-8-8zm-8 208h-24c-4.4 0-8 3.6-8 8v40h-32c-4.4 0-8 3.6-8 8v40H144v-40c0-4.4-3.6-8-8-8h-24v-40c0-4.4-3.6-8-8-8H72V96h64v80c0 4.4 3.6 8 8 8s8-3.6 8-8V96h16v80c0 4.4 3.6 8 8 8s8-3.6 8-8V96h16v80c0 4.4 3.6 8 8 8s8-3.6 8-8V96h16v80c0 4.4 3.6 8 8 8s8-3.6 8-8V96h16v80c0 4.4 3.6 8 8 8s8-3.6 8-8V96h16v80c0 4.4 3.6 8 8 8s8-3.6 8-8V96h16v80c0 4.4 3.6 8 8 8s8-3.6 8-8V96h64v192z"/><path class="st0" d="M456 0H24C10.7 0 0 10.7 0 24v432c0 13.3 10.7 24 24 24h432c13.3 0 24-10.7 24-24V24c0-13.3-10.7-24-24-24zm8 456c0 4.4-3.6 8-8 8H24c-4.4 0-8-3.6-8-8V24c0-4.4 3.6-8 8-8h432c4.4 0 8 3.6 8 8v432z"/></svg>