<svg version="1.1" xmlns="http://www.w3.org/2000/svg" x="0" y="0" viewBox="0 0 511 511" xml:space="preserve"><style>.st0{fill:#ffffff}</style><path class="st0" d="M390.7 243.3c0-11.7-9.5-21.2-21.2-21.2H142c-11.7 0-21.2 9.5-21.2 21.2.4 16.5-2.4 31.1 9.8 48.7l72.9 105.8c5.7 8.2 8.7 17.9 8.7 27.9v45c0 8.9 5.3 16.8 13.4 20.3l43.3 18.3c14.6 6.2 30.6-4.6 30.6-20.3v-63.4c0-10 3-19.6 8.7-27.9L381 292c11.3-16.4 9.7-29.9 9.7-48.7zm-99 143.1c-8 11.6-12.2 25.1-12.2 39.2V489c0 1.5-1.5 2.5-2.9 1.9l-43.3-18.3c-.8-.3-1.3-1.1-1.3-1.9v-45c0-14.1-4.2-27.6-12.2-39.2l-63.2-91.7h97.9c5.5 0 10-4.5 10-10s-4.5-10-10-10H143.7c-4.5-10.2-2.5-17.4-3-31.5 0-.7.6-1.3 1.3-1.3h227.5c.7 0 1.3.6 1.3 1.3 0 17.6.8 22.8-3 31.5h-33.4c-5.5 0-10 4.5-10 10s4.5 10 10 10h20.4l-63.1 91.6zM156.4 210c15.1 0 27.3-12.3 27.3-27.3v-22.2c0-15.1-12.3-27.3-27.3-27.3s-27.3 12.3-27.3 27.3v22.2c0 15.1 12.2 27.3 27.3 27.3zm-7.4-49.4c0-4.1 3.3-7.4 7.4-7.4 4.1 0 7.4 3.3 7.4 7.4v22.2c0 4.1-3.3 7.4-7.4 7.4-4.1 0-7.4-3.3-7.4-7.4v-22.2zM156.4 122.9c15.1 0 27.3-12.3 27.3-27.3V27.3c0-15.1-12.3-27.3-27.3-27.3s-27.3 12.3-27.3 27.3v68.3c0 15.1 12.2 27.3 27.3 27.3zM149 27.3c0-4.1 3.3-7.4 7.4-7.4 4.1 0 7.4 3.3 7.4 7.4v68.3c0 4.1-3.3 7.4-7.4 7.4-4.1 0-7.4-3.3-7.4-7.4V27.3zM221 210h3.2c14.2 0 25.7-11.5 25.7-25.7s-11.5-25.7-25.7-25.7H221c-14.2 0-25.7 11.5-25.7 25.7S206.9 210 221 210zm0-31.4h3.2c3.2 0 5.8 2.6 5.8 5.8 0 3.2-2.6 5.8-5.8 5.8H221c-3.2 0-5.8-2.6-5.8-5.8.1-3.3 2.7-5.8 5.8-5.8zM222.6 150.5c15.1 0 27.3-12.3 27.3-27.3V27.3C250 12.3 237.7 0 222.6 0s-27.3 12.3-27.3 27.3v95.9c0 15 12.3 27.3 27.3 27.3zm-7.3-123.2c0-4.1 3.3-7.4 7.4-7.4 4.1 0 7.4 3.3 7.4 7.4v95.9c0 4.1-3.3 7.4-7.4 7.4-4.1 0-7.4-3.3-7.4-7.4V27.3zM287.3 51.4h3.2c14.2 0 25.7-11.5 25.7-25.7S304.7 0 290.5 0h-3.2c-14.2 0-25.7 11.5-25.7 25.7s11.5 25.7 25.7 25.7zm0-31.4h3.2c3.2 0 5.8 2.6 5.8 5.8s-2.6 5.8-5.8 5.8h-3.2c-3.2 0-5.8-2.6-5.8-5.8s2.6-5.8 5.8-5.8zM288.9 210c15.1 0 27.3-12.3 27.3-27.3V86.8c0-15.1-12.3-27.3-27.3-27.3-15.1 0-27.3 12.3-27.3 27.3v95.9c0 15.1 12.2 27.3 27.3 27.3zm-7.4-123.2c0-4.1 3.3-7.4 7.4-7.4s7.4 3.3 7.4 7.4v95.9c0 4.1-3.3 7.4-7.4 7.4s-7.4-3.3-7.4-7.4V86.8zM355.1 76.8c15.1 0 27.3-12.3 27.3-27.3V27.3c0-15.1-12.3-27.3-27.3-27.3-15.1 0-27.3 12.3-27.3 27.3v22.1c0 15.1 12.3 27.4 27.3 27.4zm-7.3-49.5c0-4.1 3.3-7.4 7.4-7.4s7.4 3.3 7.4 7.4v22.1c0 4.1-3.3 7.4-7.4 7.4s-7.4-3.3-7.4-7.4V27.3zM355.1 210c15.1 0 27.3-12.3 27.3-27.3v-68.3c0-15.1-12.3-27.3-27.3-27.3-15.1 0-27.3 12.3-27.3 27.3v68.3c0 15.1 12.3 27.3 27.3 27.3zm-7.3-95.6c0-4.1 3.3-7.4 7.4-7.4s7.4 3.3 7.4 7.4v68.3c0 4.1-3.3 7.4-7.4 7.4s-7.4-3.3-7.4-7.4v-68.3z"/><path class="st0" d="M294.5 274.7c-5.5 0-10 4.5-10 10s4.5 10 10 10 10-4.5 10-10-4.4-10-10-10z"/></svg>