<?xml version="1.0" encoding="utf-8"?>
<!-- Generator: Adobe Illustrator 23.0.1, SVG Export Plug-In . SVG Version: 6.00 Build 0)  -->
<svg version="1.1" id="Layer_1" xmlns="http://www.w3.org/2000/svg" xmlns:xlink="http://www.w3.org/1999/xlink" x="0px" y="0px"
	 viewBox="0 0 511 511" style="enable-background:new 0 0 511 511;" xml:space="preserve">
<style type="text/css">
	.st0{fill:#37B8CD;}
</style>
<path class="st0" d="M390.7,243.3c0-11.7-9.5-21.2-21.2-21.2H142c-11.7,0-21.2,9.5-21.2,21.2c0.4,16.5-2.4,31.1,9.8,48.7l72.9,105.8
	c5.7,8.2,8.7,17.9,8.7,27.9v45c0,8.9,5.3,16.8,13.4,20.3l43.3,18.3c14.6,6.2,30.6-4.6,30.6-20.3v-63.4c0-10,3-19.6,8.7-27.9L381,292
	C392.3,275.6,390.7,262.1,390.7,243.3z M291.7,386.4c-8,11.6-12.2,25.1-12.2,39.2V489c0,1.5-1.5,2.5-2.9,1.9l-43.3-18.3
	c-0.8-0.3-1.3-1.1-1.3-1.9v-45c0-14.1-4.2-27.6-12.2-39.2l-63.2-91.7h97.9c5.5,0,10-4.5,10-10s-4.5-10-10-10H143.7
	c-4.5-10.2-2.5-17.4-3-31.5c0-0.7,0.6-1.3,1.3-1.3h227.5c0.7,0,1.3,0.6,1.3,1.3c0,17.6,0.8,22.8-3,31.5h-33.4c-5.5,0-10,4.5-10,10
	s4.5,10,10,10h20.4L291.7,386.4z"/>
<path class="st0" d="M156.4,210c15.1,0,27.3-12.3,27.3-27.3v-22.2c0-15.1-12.3-27.3-27.3-27.3s-27.3,12.3-27.3,27.3v22.2
	C129.1,197.8,141.3,210,156.4,210z M149,160.6c0-4.1,3.3-7.4,7.4-7.4c4.1,0,7.4,3.3,7.4,7.4v22.2c0,4.1-3.3,7.4-7.4,7.4
	c-4.1,0-7.4-3.3-7.4-7.4V160.6z"/>
<path class="st0" d="M156.4,122.9c15.1,0,27.3-12.3,27.3-27.3V27.3c0-15.1-12.3-27.3-27.3-27.3s-27.3,12.3-27.3,27.3v68.3
	C129.1,110.7,141.3,122.9,156.4,122.9z M149,27.3c0-4.1,3.3-7.4,7.4-7.4c4.1,0,7.4,3.3,7.4,7.4v68.3c0,4.1-3.3,7.4-7.4,7.4
	c-4.1,0-7.4-3.3-7.4-7.4V27.3z"/>
<path class="st0" d="M221,210h3.2c14.2,0,25.7-11.5,25.7-25.7c0-14.2-11.5-25.7-25.7-25.7H221c-14.2,0-25.7,11.5-25.7,25.7
	C195.3,198.5,206.9,210,221,210z M221,178.6h3.2c3.2,0,5.8,2.6,5.8,5.8c0,3.2-2.6,5.8-5.8,5.8H221c-3.2,0-5.8-2.6-5.8-5.8
	C215.3,181.1,217.9,178.6,221,178.6z"/>
<path class="st0" d="M222.6,150.5c15.1,0,27.3-12.3,27.3-27.3V27.3C250,12.3,237.7,0,222.6,0s-27.3,12.3-27.3,27.3v95.9
	C195.3,138.2,207.6,150.5,222.6,150.5z M215.3,27.3c0-4.1,3.3-7.4,7.4-7.4c4.1,0,7.4,3.3,7.4,7.4v95.9c0,4.1-3.3,7.4-7.4,7.4
	c-4.1,0-7.4-3.3-7.4-7.4V27.3z"/>
<path class="st0" d="M287.3,51.4h3.2c14.2,0,25.7-11.5,25.7-25.7c0-14.2-11.5-25.7-25.7-25.7h-3.2c-14.2,0-25.7,11.5-25.7,25.7
	S273.1,51.4,287.3,51.4z M287.3,20h3.2c3.2,0,5.8,2.6,5.8,5.8s-2.6,5.8-5.8,5.8h-3.2c-3.2,0-5.8-2.6-5.8-5.8S284.1,20,287.3,20z"/>
<path class="st0" d="M288.9,210c15.1,0,27.3-12.3,27.3-27.3V86.8c0-15.1-12.3-27.3-27.3-27.3c-15.1,0-27.3,12.3-27.3,27.3v95.9
	C261.6,197.8,273.8,210,288.9,210z M281.5,86.8c0-4.1,3.3-7.4,7.4-7.4s7.4,3.3,7.4,7.4v95.9c0,4.1-3.3,7.4-7.4,7.4s-7.4-3.3-7.4-7.4
	V86.8z"/>
<path class="st0" d="M355.1,76.8c15.1,0,27.3-12.3,27.3-27.3V27.3c0-15.1-12.3-27.3-27.3-27.3c-15.1,0-27.3,12.3-27.3,27.3v22.1
	C327.8,64.5,340.1,76.8,355.1,76.8z M347.8,27.3c0-4.1,3.3-7.4,7.4-7.4s7.4,3.3,7.4,7.4v22.1c0,4.1-3.3,7.4-7.4,7.4
	s-7.4-3.3-7.4-7.4V27.3z"/>
<path class="st0" d="M355.1,210c15.1,0,27.3-12.3,27.3-27.3v-68.3c0-15.1-12.3-27.3-27.3-27.3c-15.1,0-27.3,12.3-27.3,27.3v68.3
	C327.8,197.8,340.1,210,355.1,210z M347.8,114.4c0-4.1,3.3-7.4,7.4-7.4s7.4,3.3,7.4,7.4v68.3c0,4.1-3.3,7.4-7.4,7.4
	s-7.4-3.3-7.4-7.4V114.4z"/>
<path class="st0" d="M294.5,274.7L294.5,274.7c-5.5,0-10,4.5-10,10s4.5,10,10,10c5.5,0,10-4.5,10-10S300.1,274.7,294.5,274.7z"/>
</svg>
