<svg version="1.1" xmlns="http://www.w3.org/2000/svg" x="0" y="0" viewBox="0 0 511 511" xml:space="preserve"><style>.st0{fill:#ffffff}</style><path class="st0" d="M411.2 256.7h-6.6v-95c0-18.5-15.1-33.6-33.6-33.6h-17.4c5.1-6.8 6.1-15.6 2.5-23.4-3.8-8.3-11.9-13.5-21-13.5h-10.3V28.9c0-15.9-13-28.9-28.9-28.9C280 0 267 13 267 28.9v62.3h-10.3c-9.2 0-17.2 5.2-21 13.5-3.6 7.8-2.6 16.6 2.5 23.4h-32.6V90.9h10.3c9.2 0 17.2-5.2 21-13.5 3.8-8.3 2.4-17.8-3.6-24.7L194.6 8.1C190.1 3 183.6 0 176.7 0c-6.9 0-13.4 3-17.9 8.1l-38.7 44.5c-6 6.9-7.4 16.4-3.6 24.7 3.8 8.3 11.9 13.5 21 13.5h10.3V128H129c-18.5 0-33.6 15.1-33.6 33.6v34c-18.9 2.5-33.5 18.8-33.5 38.3v238.3c0 21.3 17.4 38.7 38.7 38.7h310.6c21.3 0 38.7-17.4 38.7-38.7V295.5c0-21.4-17.4-38.8-38.7-38.8zM253.9 113c.4-.8 1.2-1.8 2.9-1.8h13.3c9.3 0 16.9-7.6 16.9-16.9V28.9c0-4.9 4-8.9 8.9-8.9s8.9 4 8.9 8.9v65.3c0 9.3 7.6 16.9 16.9 16.9H335c1.7 0 2.5 1 2.9 1.8.4.8.6 2.1-.5 3.4l-13.2 15.2-25.5 29.3c-1 1.1-2.2 1.3-2.8 1.3-.6 0-1.8-.2-2.8-1.3l-38.7-44.5c-1.1-1.2-.9-2.5-.5-3.3zM137.5 70.9c-1.7 0-2.5-1-2.9-1.8-.4-.8-.6-2.1.5-3.4l38.7-44.5c1-1.1 2.2-1.3 2.8-1.3.6 0 1.8.2 2.8 1.3l38.7 44.5c1.1 1.3.9 2.5.5 3.4-.4.8-1.2 1.8-2.9 1.8h-13.3c-9.3 0-16.9 7.6-16.9 16.9v65.3c0 4.9-4 8.9-8.9 8.9s-8.9-4-8.9-8.9V87.8c0-9.3-7.6-16.9-16.9-16.9h-13.3zm292.4 401.4c0 10.3-8.4 18.7-18.7 18.7H100.6c-10.3 0-18.7-8.4-18.7-18.7V234c0-10.3 8.4-18.7 18.7-18.7h91.2c10.3 0 18.7 8.4 18.7 18.7v17.5c0 13.9 11.3 25.2 25.2 25.2h52.4c5.5 0 10-4.5 10-10s-4.5-10-10-10h-52.4c-2.9 0-5.3-2.4-5.3-5.3V234c0-21.3-17.4-38.7-38.7-38.7h-76.4v-33.6c0-7.5 6.1-13.6 13.6-13.6h18.8v5.1c0 1.5.1 3 .3 4.4 1 6.2 3.9 11.8 8.1 16 5.2 5.2 12.5 8.5 20.4 8.5 14.4 0 26.4-10.6 28.5-24.5.2-1.4.3-2.9.3-4.4v-5.1h49.9l22.5 25.9c4.5 5.2 11 8.1 17.9 8.1 6.9 0 13.4-3 17.9-8.1l22.5-25.9h35c7.5 0 13.6 6.1 13.6 13.6v95H368c-5.5 0-10 4.5-10 10s4.5 10 10 10h43.2c10.3 0 18.7 8.4 18.7 18.7v176.9z"/><path class="st0" d="M191.6 322.1h-48.9c-2.6 0-4.9.6-6.8 1.8-1.9 1.2-2.8 2.8-2.8 5v89.4c0 2.2 1.1 3.8 3.2 5 2.2 1.2 4.7 1.8 7.7 1.8s5.6-.6 7.7-1.8c2.2-1.2 3.2-2.8 3.2-5V382h21.3c2.2 0 3.8-.8 4.9-2.5 1.1-1.7 1.7-3.6 1.7-5.8 0-2.3-.6-4.4-1.8-6.1-1.2-1.7-2.8-2.5-4.9-2.5h-21.3v-23.8h36.5c2.1 0 3.7-.9 4.9-2.8 1.2-1.9 1.8-4.2 1.8-6.9 0-2.5-.6-4.7-1.7-6.6-.9-1.9-2.6-2.9-4.7-2.9zM277.2 322.1h-60.8c-2.2 0-3.8.9-4.9 2.8-1.1 1.9-1.7 4.1-1.7 6.6 0 2.7.6 5 1.8 6.9 1.2 1.9 2.8 2.8 4.9 2.8h19.4v77c0 2.2 1.1 3.9 3.2 5 2.2 1.2 4.7 1.8 7.7 1.8s5.6-.6 7.7-1.8c2.2-1.2 3.2-2.9 3.2-5v-77h19.4c2.1 0 3.7-.9 4.9-2.8 1.2-1.9 1.8-4.2 1.8-6.9 0-2.5-.6-4.8-1.7-6.6s-2.7-2.8-4.9-2.8zM364.6 330c-6.1-5.2-14.1-7.8-24.1-7.8h-29.2c-2.4 0-4.4.7-5.9 2s-2.3 2.9-2.3 4.6v89.6c0 2.2 1.1 3.8 3.2 5 2.2 1.2 4.7 1.8 7.7 1.8s5.6-.6 7.7-1.8c2.2-1.2 3.2-2.8 3.2-5V388H339c10.4 0 18.8-2.7 25.1-8 6.3-5.3 9.5-13.5 9.5-24.7v-.7c.1-11.2-3-19.4-9-24.6zm-12.9 26.9c0 9.4-4.2 14.1-12.7 14.1h-13.9v-29.7H339c8.4 0 12.7 4.7 12.7 14.1v1.5zM328.1 276.7c5.5 0 10-4.5 10-10s-4.5-10-10-10-10 4.5-10 10 4.5 10 10 10z"/></svg>