<svg xmlns="http://www.w3.org/2000/svg" viewBox="0 0 301.8 330.6"><path d="M0 0v157.6c0 27.8 50.8 75.7 92.4 108.9l.1.1 4.7 4.1-.1.1 23.1 20.1.1-.1 23.8-27.3 7.7-8.9 72.1-83.4c5.9-8.6 10-16.7 11.6-24 .2-.9.3-1.8.4-2.6.1-.9.2-1.9.2-2.8V68.5h-32.6v65.7c0 5.6-2.3 11.9-6.3 18.6l-20.8-18.1-16-13.9-6.8-5.9-.2-.2-.2-.1-.1-.1-15.5 17.9-4.6 5.2-15.4 17.8c-4.6-6.5-8.4-13.8-8.9-19.8V68.5H76.1V141c0 6.8 2.9 14.5 7.7 22.7 1.4 2.4 3.7 5.4 5.2 7 0 0 3.2 3.2 8.7 7.6l3.9 3.4 19.3 16.8.2-.3 35.1-40.4 22.1 19.3-55.8 64.5-3 3.5-.2.2-.4.4c-.2-.2-.5-.4-.7-.5-35-26-85.7-68.3-85.7-94.3V27.4H269v123.5c0 8.9-6 19.7-15.2 31.2-.9 1.2-2.9 3.5-2.9 3.5l-2.5 2.8-.1.1-101 116.3-4.8 5.5-.1.1 23.2 20.2 97.5-112.2c22.1-22 38.5-44 38.5-60.7V0H0z" style="fill-opacity: .05; fill: #fff;"/><path d="M0 0v157.6c0 27.8 50.8 75.7 92.4 108.9l.1.1 4.7 4.1-.1.1 23.1 20.1.1-.1 23.8-27.3 7.7-8.9 72.1-83.4c5.9-8.6 10-16.7 11.6-24 .2-.9.3-1.8.4-2.6.1-.9.2-1.9.2-2.8V68.5h-32.6v65.7c0 5.6-2.3 11.9-6.3 18.6l-20.8-18.1-16-13.9-6.8-5.9-.2-.2-.2-.1-.1-.1-15.5 17.9-4.6 5.2-15.4 17.8c-4.6-6.5-8.4-13.8-8.9-19.8V68.5H76.1V141c0 6.8 2.9 14.5 7.7 22.7 1.4 2.4 3.7 5.4 5.2 7 0 0 3.2 3.2 8.7 7.6l3.9 3.4 19.3 16.8.2-.3 35.1-40.4 22.1 19.3-55.8 64.5-3 3.5-.2.2-.4.4c-.2-.2-.5-.4-.7-.5-35-26-85.7-68.3-85.7-94.3V27.4H269v123.5c0 8.9-6 19.7-15.2 31.2-.9 1.2-2.9 3.5-2.9 3.5l-2.5 2.8-.1.1-101 116.3-4.8 5.5-.1.1 23.2 20.2 97.5-112.2c22.1-22 38.5-44 38.5-60.7V0H0z" style="fill-opacity: .05; fill: #fff;"/></svg>