<svg version="1.1" xmlns="http://www.w3.org/2000/svg" x="0" y="0" viewBox="0 0 511 511" xml:space="preserve"><style>.st0{fill:#ffffff}</style><path class="st0" d="M245.5 133.8c0 5.5 4.5 10 10 10s10-4.5 10-10v-20.9c0-5.5-4.5-10-10-10s-10 4.5-10 10v20.9zM161.3 144.7c-4-3.8-10.3-3.6-14.1.4-3.8 4-3.6 10.3.4 14.1l15.2 14.4c4 3.8 10.3 3.6 14.1-.4 3.8-4 3.6-10.3-.4-14.1l-15.2-14.4zM348.2 173.6l15.2-14.4c4-3.8 4.2-10.1.4-14.1-3.8-4-10.1-4.2-14.1-.4l-15.2 14.4c-4 3.8-4.2 10.1-.4 14.1 3.8 4 10.1 4.2 14.1.4zM122 227.7h-21.8c-5.5 0-10 4.5-10 10s4.5 10 10 10H122c5.5 0 10-4.5 10-10 0-5.6-4.5-10-10-10zM389 247.6h21.8c5.5 0 10-4.5 10-10s-4.5-10-10-10H389c-5.5 0-10 4.5-10 10 0 5.6 4.5 10 10 10zM298 411.6h-85c-21.7 0-39.4 17.7-39.4 39.4s17.7 39.4 39.4 39.4h85c21.7 0 39.4-17.7 39.4-39.4.1-21.8-17.6-39.4-39.4-39.4zm0 58.8h-85c-10.7 0-19.5-8.7-19.5-19.5 0-10.7 8.7-19.5 19.5-19.5h85c10.7 0 19.5 8.7 19.5 19.5s-8.7 19.5-19.5 19.5zM220.3 77.3c-4.5-4.5-12-3.6-15.3 1.5-4.4 6.7.4 15.5 8.3 15.5 8.7 0 13.3-10.7 7-17z"/><path class="st0" d="M435.4 95.4C334.6-4.7 173.5-3.3 74.4 96.2 25.9 145-.5 209.8 0 278.6c.4 42.6 35.3 77.2 77.8 77.2h131.6c3.8 22 23 38.8 46 38.8s42.3-16.8 46-38.8h131.7c42.6 0 77.5-34.7 77.8-77.4.6-68-25.6-133.5-75.5-183zm-141 81.8c2.1-6.8 12.2-4.5 11.4 2.4-.1.6 1.2-5.1-28.8 126.8-6.4-3.3-13.7-5.2-20.9-5.2 2.5-8.3 31.7-102.5 38.3-124zm-38.9 197.5c-15.3 0-27.6-12.9-26.7-28.3.9-16.4 16.5-28.2 32.5-24.5 10.4 2.3 18.2 10.6 20.3 20.7 3.5 16.6-9.2 32.1-26.1 32.1zm177.7-38.8H300.6c-1.3-4.9-3.5-9.8-6.6-14.3l8-35.1h119.6c11.3 0 21.9-4.9 29.1-13.5 7.3-8.6 10.4-20 8.5-31.2-8-47.6-32.8-91.1-69.7-122.6-37.3-31.8-84.9-49.4-134.1-49.4-5.5 0-10 4.5-10 10s4.5 10 10 10c44.4 0 87.4 15.8 121.1 44.6 33.4 28.5 55.7 67.8 63 110.8.9 5.4-.6 10.8-4.1 14.9-3.5 4.1-8.5 6.5-13.9 6.5h-115c19.2-86 19.7-82.7 19.2-89.4-1.5-21.5-27.3-31.7-43.1-17.2-3.3 3-5.9 7-7.3 11.5l-29.4 95.2H89.4c-11.3 0-19.9-10.2-18-21.4 10.3-61.2 50.4-113.1 107.1-138.8 5-2.3 7.2-8.2 5-13.2s-8.2-7.2-13.2-5c-62.7 28.5-107 85.9-118.5 153.6-4 23.4 14 44.7 37.7 44.7h150.4l-6.3 20.3c-11.4 6.1-19.8 16.7-23.1 29.1H77.8c-31.6 0-57.6-25.7-57.9-57.4-.5-61.7 22.8-122.1 68.6-168.2 91.3-91.7 239.8-93.1 332.7-.8 44.8 44.5 69.6 103.6 69.7 166.4.2 35.9-27.4 59.9-57.7 59.9z"/></svg>