<svg version="1.1" xmlns="http://www.w3.org/2000/svg" x="0" y="0" viewBox="0 0 512 512" xml:space="preserve"><style>.st0{fill:#37b8cd}</style><path class="st0" d="M450.3 4H61.7C27.7 4 0 31.7 0 65.7v246.5c0 34 27.7 61.7 61.7 61.7h145.1l-16.5 74.3h-39.8c-17.5 0-31.8 14.3-31.8 31.8v8.1H87.2c-5.5 0-10 4.5-10 10s4.5 10 10 10h326.7c5.5 0 10-4.5 10-10s-4.5-10-10-10h-20.6V480c0-17.5-14.3-31.8-31.8-31.8h-39.8L305.1 374h145.1c34 0 61.7-27.7 61.7-61.7V65.8C512 31.7 484.3 4 450.3 4zM61.7 24h388.5c21.1 0 38.5 15.7 41.3 36H20.4c2.8-20.3 20.2-36 41.3-36zm311.6 456.1v8.1H138.7v-8.1c0-6.5 5.3-11.8 11.8-11.8h210.9c6.6 0 11.9 5.3 11.9 11.8zm-72.1-31.8h-90.4l16.5-74.3h57.3l16.6 74.3zM450.3 354H61.8c-21.1 0-38.5-15.7-41.3-36H374c5.5 0 10-4.5 10-10s-4.5-10-10-10H20V80h472v217.9h-38.1c-5.5 0-10 4.5-10 10s4.5 10 10 10h37.7c-2.8 20.4-20.2 36.1-41.3 36.1z"/><path class="st0" d="M414.5 99.9c-23.1 0-39.7 22.5-32.8 44.5l-55 39.6c-13.1-8-30.3-6.3-41.6 4.7l-47.9-25.2c3.2-20.8-13-39.5-33.9-39.5-22.4 0-39.1 21.4-33.1 43.3L118.5 204c-22.4-17.2-55.2-1.2-55.2 27.2 0 18.9 15.4 34.3 34.3 34.3s34.3-15.4 34.3-34.3c0-3.8-.6-7.5-1.8-11l50.8-36c6 5.2 13.9 8.4 22.4 8.4 10 0 19-4.3 25.3-11.1l46.9 24.7c-4.6 21.4 11.9 41.5 33.6 41.5 25 0 41.6-26 31.2-48.6l53.1-38c5.9 4.7 13.3 7.6 21.5 7.6 18.9 0 34.3-15.4 34.3-34.3-.4-19.1-15.7-34.5-34.7-34.5zm-317 145.5c-7.9 0-14.3-6.4-14.3-14.3s6.4-14.3 14.3-14.3 14.3 6.4 14.3 14.3-6.4 14.3-14.3 14.3zm105.7-72.8c-7.9 0-14.3-6.4-14.3-14.3s6.4-14.3 14.3-14.3 14.3 6.4 14.3 14.3-6.5 14.3-14.3 14.3zm105.6 55c-7.9 0-14.3-6.4-14.3-14.3S301 199 308.8 199c7.9 0 14.3 6.4 14.3 14.3s-6.4 14.3-14.3 14.3zm105.7-79c-7.9 0-14.3-6.4-14.3-14.3s6.4-14.3 14.3-14.3 14.3 6.4 14.3 14.3-6.4 14.3-14.3 14.3zM413.9 297.9c-5.5 0-10 4.5-10 10s4.5 10 10 10 10-4.5 10-10-4.5-10-10-10z"/></svg>