<svg version="1.1" xmlns="http://www.w3.org/2000/svg" x="0" y="0" viewBox="0 0 480 480" xml:space="preserve"><style>.st0{fill:#37b8cd}</style><path class="st0" d="M208 152c-13.2 0-24 10.8-24 24h16c0-4.4 3.6-8 8-8s8 3.6 8 8h16c0-13.2-10.8-24-24-24zM272 152c-13.2 0-24 10.8-24 24h16c0-4.4 3.6-8 8-8s8 3.6 8 8h16c0-13.2-10.8-24-24-24zM240 368c-17.6 0-32 14.4-32 32s14.4 32 32 32 32-14.4 32-32-14.4-32-32-32zm0 48c-8.8 0-16-7.2-16-16s7.2-16 16-16 16 7.2 16 16-7.2 16-16 16z"/><path class="st0" d="M432 464V360c0-66.2-53.8-120-120-120h-8.7c2.8-2.5 5.5-5.2 8.1-8h8.6c22.1 0 40-17.9 40-40v-14.1c9.6-6.5 16-17.5 16-29.9 0-12.5-6.4-23.5-16.1-30C358.8 52.8 305.5 0 240 0S121.2 52.8 120.1 118c-9.7 6.5-16.1 17.5-16.1 30 0 19.8 16.2 36 36 36h5.4c3.7 22.2 15.1 41.7 31.3 56H168c-66.2 0-120 53.8-120 120v104H0v16h480v-16h-48zm-88-272c0 12.1-9.1 22.1-20.8 23.7 5.5-9.6 9.4-20.3 11.3-31.7h5.4c1.4 0 2.7-.3 4-.4v8.4zm16-44c0 11-9 20-20 20h-4v-40h4c11 0 20 9 20 20zm-216 20h-4c-11 0-20-9-20-20s9-20 20-20h4v40zm-4-56c-1.2 0-2.4.2-3.6.4C140.3 58.6 185.2 16 240 16s99.7 42.6 103.6 96.4c-1.2-.1-2.4-.4-3.6-.4h-5.4C327 66.7 287.5 32 240 32s-86.9 34.7-94.6 80H140zm180 15.8c-57.7-2-96-25.6-96-47.8 0-4.4-3.6-8-8-8s-8 3.6-8 8c0 20-20.7 36.6-47.5 39.5C164.7 79.4 198.8 48 240 48c44 0 79.9 35.8 80 79.8zM160 168v-32.4c25-2.2 46.2-14.2 56.8-31.1 16.7 22.2 55.8 37.8 103.2 39.4V168c0 18-6.1 34.6-16.2 48H240v16h47.8c-4.6 3.4-9.5 6.4-14.8 8.8-21 9.5-45 9.5-66 0-27.7-12.6-47-40.4-47-72.8zm55.3 92.7c7.9 2.1 16.2 3.3 24.7 3.3s16.8-1.2 24.7-3.3L240 310.1l-24.7-49.4zm11.8 59.3H213l-32-64h14.1l32 64zm57.8-64H299l-32 64h-14.1l32-64zM88 360v104H64V360c0-55.7 44.1-101.2 99.2-103.8l31.9 63.8H128c-22.1 0-40 17.9-40 40zm288 104H104V360c0-13.2 10.8-24 24-24h224c13.2 0 24 10.8 24 24v104zm40 0h-24V360c0-22.1-17.9-40-40-40h-67.1l31.9-63.8c55.1 2.5 99.2 48 99.2 103.8v104z"/><path class="st0" d="M344 392h16v56h-16zM344 360h16v16h-16zM416 72h16v16h-16zM416 104h16v16h-16zM416 136h16v16h-16zM48 168h16v16H48zM48 200h16v16H48zM48 232h16v16H48z"/></svg>