<?xml version="1.0" standalone="no"?>
<!DOCTYPE svg PUBLIC "-//W3C//DTD SVG 20010904//EN"
 "http://www.w3.org/TR/2001/REC-SVG-20010904/DTD/svg10.dtd">
<svg version="1.0" xmlns="http://www.w3.org/2000/svg"
 width="512.000000pt" height="512.000000pt" viewBox="0 0 512.000000 512.000000"
 preserveAspectRatio="xMidYMid meet">
<metadata>
Created by potrace 1.11, written by Peter Selinger 2001-2013
</metadata>
<g transform="translate(0.000000,512.000000) scale(0.100000,-0.100000)"
fill="#000000" stroke="none">
<path d="M406 4920 c-1 -3 -2 -520 -1 -1150 1 -1249 -2 -1191 60 -1327 47
-103 165 -278 264 -393 154 -178 299 -327 486 -500 97 -90 292 -258 410 -355
61 -49 133 -109 160 -134 28 -25 66 -60 85 -76 19 -17 83 -72 142 -123 58 -50
110 -92 115 -92 5 0 17 10 28 23 35 42 399 462 405 467 3 3 32 36 65 75 88
103 109 127 120 139 6 6 35 40 65 76 30 35 64 74 75 86 11 12 41 46 66 75 25
30 124 144 219 254 95 110 195 227 224 259 28 33 69 81 91 106 112 128 141
165 172 217 48 80 77 138 103 213 23 65 23 67 25 623 0 306 -2 558 -5 558 -3
1 -107 2 -232 3 -222 1 -228 1 -229 -19 0 -11 -2 -238 -3 -505 -3 -529 -1
-517 -64 -632 l-25 -48 -61 53 c-34 30 -175 153 -314 275 l-253 222 -181 -208
c-267 -306 -276 -317 -299 -345 -11 -15 -24 -27 -28 -27 -4 0 -26 33 -49 73
-78 137 -75 103 -76 662 l-1 500 -235 0 -235 0 1 -560 0 -560 32 -84 c31 -82
100 -202 145 -251 12 -14 52 -50 87 -81 36 -30 134 -115 218 -188 84 -73 156
-131 162 -129 5 2 55 57 112 123 57 66 117 136 134 155 45 50 184 210 214 246
42 49 48 50 93 7 23 -22 92 -83 153 -135 l111 -95 -251 -290 c-138 -160 -273
-317 -301 -349 -185 -215 -289 -329 -300 -329 -23 0 -426 319 -600 475 -61 54
-317 310 -356 355 -154 180 -250 343 -266 456 -6 40 -10 1737 -4 1807 1 9 346
12 1689 12 l1687 0 -1 -907 c0 -701 -3 -918 -13 -953 -19 -67 -88 -194 -151
-280 -31 -41 -121 -150 -201 -241 -79 -91 -166 -191 -194 -224 -27 -32 -54
-63 -60 -69 -5 -6 -39 -45 -75 -86 -59 -68 -109 -125 -135 -154 -5 -6 -37 -43
-70 -81 -56 -65 -107 -123 -130 -149 -6 -6 -114 -130 -240 -276 -126 -146
-232 -267 -235 -270 -3 -3 -32 -36 -64 -75 -33 -38 -65 -74 -70 -80 -6 -5 -46
-51 -89 -101 -71 -84 -89 -114 -69 -114 4 0 25 -17 48 -38 48 -44 154 -136
197 -172 16 -14 39 -33 50 -43 11 -9 23 -17 26 -17 3 1 25 24 49 53 23 29 57
68 75 88 46 52 81 91 182 209 49 58 92 107 95 110 3 3 34 39 70 80 36 41 77
88 91 105 49 55 253 290 309 355 119 138 274 317 304 350 17 19 74 84 125 144
52 60 120 134 150 166 283 290 456 553 488 738 8 51 10 2301 1 2315 -5 8 -601
11 -2158 12 -1184 0 -2153 -2 -2154 -5z"/>
</g>
</svg>
