<svg xmlns="http://www.w3.org/2000/svg" viewBox="0 0 301.76 330.56"><path d="M0 0v157.58c0 27.77 50.81 75.73 92.41 108.9l.12.1 4.72 4.1-.09.11 23.12 20.09.06-.07 23.75-27.34 7.73-8.88 72.1-83.39c5.91-8.56 10.01-16.69 11.57-24.04.18-.88.33-1.75.43-2.61.13-.93.21-1.85.24-2.76.01-.28.01-.55.01-.83V68.5h-32.65v65.71c0 5.56-2.33 11.87-6.33 18.6l-20.81-18.15.02-.03-16.03-13.93-6.75-5.89-.17-.15-.16-.14-.01.01-.12-.1-15.51 17.87-4.59 5.22.04.03-15.42 17.76c-4.64-6.47-8.37-13.78-8.86-19.79 0-.06-.01-.13-.01-.19-.03-.38-.04-.75-.04-1.12V68.5H76.11v72.46c0 6.81 2.87 14.48 7.68 22.7 1.43 2.45 3.69 5.44 5.19 7.04 0 0 3.21 3.22 8.71 7.55l-.02.02 3.94 3.43 19.3 16.77.03-.03.23-.27.04.04.03-.03 35.05-40.4 22.08 19.26-55.77 64.47-.01.01-3 3.46-.21.24-.36.41c-.24-.17-.48-.35-.72-.53-35-26.03-85.65-68.34-85.65-94.27V27.35h236.46v123.48c0 8.9-5.97 19.73-15.23 31.17-.94 1.16-2.92 3.5-2.92 3.5l-2.48 2.84-.09.1-101.06 116.31-4.78 5.5-.1.11 23.24 20.2.03-.03 97.5-112.21c22.07-22 38.54-44.04 38.54-60.74V0H0z" fill="#2da8d8"/><linearGradient id="a" gradientUnits="userSpaceOnUse" x1="0" y1="165.28" x2="301.76" y2="165.28"><stop offset="0" stop-color="#3ddeed"/><stop offset="1" stop-color="#3ddeed" stop-opacity="0"/></linearGradient><path d="M0 0v157.58c0 27.77 50.81 75.73 92.41 108.9l.12.1 4.72 4.1-.09.11 23.12 20.09.06-.07 23.75-27.34 7.73-8.88 72.1-83.39c5.91-8.56 10.01-16.69 11.57-24.04.18-.88.33-1.75.43-2.61.13-.93.21-1.85.24-2.76.01-.28.01-.55.01-.83V68.5h-32.65v65.71c0 5.56-2.33 11.87-6.33 18.6l-20.81-18.15.02-.03-16.03-13.93-6.75-5.89-.17-.15-.16-.14-.01.01-.12-.1-15.51 17.87-4.59 5.22.04.03-15.42 17.76c-4.64-6.47-8.37-13.78-8.86-19.79 0-.06-.01-.13-.01-.19-.03-.38-.04-.75-.04-1.12V68.5H76.11v72.46c0 6.81 2.87 14.48 7.68 22.7 1.43 2.45 3.69 5.44 5.19 7.04 0 0 3.21 3.22 8.71 7.55l-.02.02 3.94 3.43 19.3 16.77.03-.03.23-.27.04.04.03-.03 35.05-40.4 22.08 19.26-55.77 64.47-.01.01-3 3.46-.21.24-.36.41c-.24-.17-.48-.35-.72-.53-35-26.03-85.65-68.34-85.65-94.27V27.35h236.46v123.48c0 8.9-5.97 19.73-15.23 31.17-.94 1.16-2.92 3.5-2.92 3.5l-2.48 2.84-.09.1-101.06 116.31-4.78 5.5-.1.11 23.24 20.2.03-.03 97.5-112.21c22.07-22 38.54-44.04 38.54-60.74V0H0z" fill="url(#a)"/></svg>